# xmcd
#
# Track frame offsets:
#	150
#	14584
#	23893
#	36949
#	47396
#	59622
#	69710
#	79502
#	89720
#	100135
#	111660
#	122567
#	131564
#	143189
#	155034
#	166119
#	177602
#	185848
#	196171
#	205348
#	217080
#	228053
#	237621
#	247626
#	258903
#	268062
#	278362
#	290236
#	302334
#
# Disc length: 4175 seconds
#
# Revision: 1
# Processed by: cddbd v1.5.2PL0 Copyright (c) Steve Scherf et al.
# Submitted via: EZCDAudioConverter 3.1.7.1
#
DISCID=af104d1d
DTITLE=Porter Wagoner - The Thin Man From The West Plains_cd4
DYEAR=196
DGENRE=Country
TTITLE0=Legend Of The Big Steeple
TTITLE1=Wakin' Up The Crowd
TTITLE2=An Old Log Cabin For Sale
TTITLE3=Falling Again
TTITLE4=Old Jess
TTITLE5=Your Old Love Letters
TTITLE6=Heartbreak Affair
TTITLE7=Everything She Touches Gets The Blues
TTITLE8=I cried Again
TTITLE9=Tricks Of the Trade
TTITLE10=My Name Is Mud
TTITLE11=Sugarfoot Rag
TTITLE12=I Thought I Heard You Calling My Name
TTITLE13=One Way Ticket To The Blues
TTITLE14=Take Good Care Of Her
TTITLE15=I went Out Of My Way
TTITLE16=Tennessee Border
TTITLE17=I Gotta Find Someone (Who Loves Like I do)
TTITLE18=Uncle Pen
TTITLE19=Misery Loves Company
TTITLE20=Cryin' Loud
TTITLE21=I Wonder Where You Are Tonight
TTITLE22=Frosty The Snowman
TTITLE23=Cold Dark Waters
TTITLE24=Ainn't It Awful
TTITLE25=Wasted Years
TTITLE26=Private Little World
TTITLE27=I've Enjoyed As Much Of This As I CanStand
TTITLE28=Blue House Painted White
EXTD=
EXTT0=
EXTT1=
EXTT2=
EXTT3=
EXTT4=
EXTT5=
EXTT6=
EXTT7=
EXTT8=
EXTT9=
EXTT10=
EXTT11=
EXTT12=
EXTT13=
EXTT14=
EXTT15=
EXTT16=
EXTT17=
EXTT18=
EXTT19=
EXTT20=
EXTT21=
EXTT22=
EXTT23=
EXTT24=
EXTT25=
EXTT26=
EXTT27=
EXTT28=
PLAYORDER=
